<mxfile host="app.diagrams.net" modified="2021-10-12T12:27:23.427Z" agent="5.0 (Windows NT 10.0; Win64; x64) AppleWebKit/537.36 (KHTML, like Gecko) Chrome/94.0.4606.71 Safari/537.36 Edg/94.0.992.38" etag="JPdMGIL4T6IVoEl2woTf" version="15.5.1" type="github">
  <diagram id="c0Pue5N_suaAR-4GUEYI" name="Page-1">
    <mxGraphModel dx="1038" dy="1679" grid="1" gridSize="10" guides="1" tooltips="1" connect="1" arrows="1" fold="1" page="1" pageScale="1" pageWidth="850" pageHeight="1100" math="0" shadow="0">
      <root>
        <mxCell id="0" />
        <mxCell id="1" parent="0" />
        <mxCell id="qFnuYC6iwy2XqBTxq7xe-1" value="Fitness Center" style="shape=rect;html=1;verticalAlign=top;fontStyle=1;whiteSpace=wrap;align=center;" parent="1" vertex="1">
          <mxGeometry x="160" y="-150" width="530" height="600" as="geometry" />
        </mxCell>
        <mxCell id="qFnuYC6iwy2XqBTxq7xe-2" value="Student" style="shape=umlActor;html=1;verticalLabelPosition=bottom;verticalAlign=top;align=center;" parent="1" vertex="1">
          <mxGeometry x="70" y="110" width="30" height="60" as="geometry" />
        </mxCell>
        <mxCell id="qFnuYC6iwy2XqBTxq7xe-3" value="Instructor" style="shape=umlActor;html=1;verticalLabelPosition=bottom;verticalAlign=top;align=center;" parent="1" vertex="1">
          <mxGeometry x="80" y="310" width="30" height="60" as="geometry" />
        </mxCell>
        <mxCell id="qFnuYC6iwy2XqBTxq7xe-6" value="Admin" style="shape=umlActor;html=1;verticalLabelPosition=bottom;verticalAlign=top;align=center;" parent="1" vertex="1">
          <mxGeometry x="750" y="160" width="30" height="60" as="geometry" />
        </mxCell>
        <mxCell id="qFnuYC6iwy2XqBTxq7xe-7" value="Login" style="ellipse;whiteSpace=wrap;html=1;" parent="1" vertex="1">
          <mxGeometry x="250" y="140" width="140" height="70" as="geometry" />
        </mxCell>
        <mxCell id="qFnuYC6iwy2XqBTxq7xe-8" value="Create new account" style="ellipse;whiteSpace=wrap;html=1;" parent="1" vertex="1">
          <mxGeometry x="250" y="280" width="140" height="70" as="geometry" />
        </mxCell>
        <mxCell id="qFnuYC6iwy2XqBTxq7xe-11" value="View all accounts" style="ellipse;whiteSpace=wrap;html=1;" parent="1" vertex="1">
          <mxGeometry x="480" y="230" width="140" height="70" as="geometry" />
        </mxCell>
        <mxCell id="qFnuYC6iwy2XqBTxq7xe-12" value="Edit account" style="ellipse;whiteSpace=wrap;html=1;" parent="1" vertex="1">
          <mxGeometry x="330" y="370" width="140" height="70" as="geometry" />
        </mxCell>
        <mxCell id="qFnuYC6iwy2XqBTxq7xe-14" value="Delete account" style="ellipse;whiteSpace=wrap;html=1;" parent="1" vertex="1">
          <mxGeometry x="540" y="350" width="140" height="70" as="geometry" />
        </mxCell>
        <mxCell id="qFnuYC6iwy2XqBTxq7xe-15" value="" style="edgeStyle=none;html=1;endArrow=none;verticalAlign=bottom;rounded=0;entryX=0;entryY=0.5;entryDx=0;entryDy=0;" parent="1" source="qFnuYC6iwy2XqBTxq7xe-2" target="qFnuYC6iwy2XqBTxq7xe-7" edge="1">
          <mxGeometry width="160" relative="1" as="geometry">
            <mxPoint x="340" y="300" as="sourcePoint" />
            <mxPoint x="500" y="300" as="targetPoint" />
          </mxGeometry>
        </mxCell>
        <mxCell id="qFnuYC6iwy2XqBTxq7xe-16" value="" style="edgeStyle=none;html=1;endArrow=none;verticalAlign=bottom;rounded=0;entryX=0;entryY=0;entryDx=0;entryDy=0;" parent="1" source="qFnuYC6iwy2XqBTxq7xe-2" target="qFnuYC6iwy2XqBTxq7xe-8" edge="1">
          <mxGeometry width="160" relative="1" as="geometry">
            <mxPoint x="340" y="300" as="sourcePoint" />
            <mxPoint x="500" y="300" as="targetPoint" />
          </mxGeometry>
        </mxCell>
        <mxCell id="qFnuYC6iwy2XqBTxq7xe-17" value="" style="edgeStyle=none;html=1;endArrow=none;verticalAlign=bottom;rounded=0;entryX=0;entryY=1;entryDx=0;entryDy=0;" parent="1" source="qFnuYC6iwy2XqBTxq7xe-3" target="qFnuYC6iwy2XqBTxq7xe-7" edge="1">
          <mxGeometry width="160" relative="1" as="geometry">
            <mxPoint x="340" y="300" as="sourcePoint" />
            <mxPoint x="500" y="300" as="targetPoint" />
          </mxGeometry>
        </mxCell>
        <mxCell id="qFnuYC6iwy2XqBTxq7xe-18" value="" style="edgeStyle=none;html=1;endArrow=none;verticalAlign=bottom;rounded=0;entryX=0;entryY=0.5;entryDx=0;entryDy=0;" parent="1" source="qFnuYC6iwy2XqBTxq7xe-3" target="qFnuYC6iwy2XqBTxq7xe-8" edge="1">
          <mxGeometry width="160" relative="1" as="geometry">
            <mxPoint x="340" y="300" as="sourcePoint" />
            <mxPoint x="500" y="300" as="targetPoint" />
          </mxGeometry>
        </mxCell>
        <mxCell id="qFnuYC6iwy2XqBTxq7xe-19" value="" style="edgeStyle=none;html=1;endArrow=none;verticalAlign=bottom;rounded=0;exitX=1;exitY=0.5;exitDx=0;exitDy=0;" parent="1" source="qFnuYC6iwy2XqBTxq7xe-7" target="qFnuYC6iwy2XqBTxq7xe-6" edge="1">
          <mxGeometry width="160" relative="1" as="geometry">
            <mxPoint x="340" y="300" as="sourcePoint" />
            <mxPoint x="500" y="300" as="targetPoint" />
          </mxGeometry>
        </mxCell>
        <mxCell id="qFnuYC6iwy2XqBTxq7xe-20" value="" style="edgeStyle=none;html=1;endArrow=none;verticalAlign=bottom;rounded=0;exitX=1;exitY=0;exitDx=0;exitDy=0;" parent="1" source="qFnuYC6iwy2XqBTxq7xe-11" target="qFnuYC6iwy2XqBTxq7xe-6" edge="1">
          <mxGeometry width="160" relative="1" as="geometry">
            <mxPoint x="340" y="300" as="sourcePoint" />
            <mxPoint x="500" y="300" as="targetPoint" />
          </mxGeometry>
        </mxCell>
        <mxCell id="qFnuYC6iwy2XqBTxq7xe-22" value="&amp;lt;&amp;lt;include&amp;gt;&amp;gt;" style="edgeStyle=none;html=1;endArrow=open;verticalAlign=bottom;dashed=1;labelBackgroundColor=none;rounded=0;entryX=0.709;entryY=0.014;entryDx=0;entryDy=0;exitX=0.066;exitY=0.746;exitDx=0;exitDy=0;entryPerimeter=0;exitPerimeter=0;" parent="1" source="qFnuYC6iwy2XqBTxq7xe-11" target="qFnuYC6iwy2XqBTxq7xe-12" edge="1">
          <mxGeometry width="160" relative="1" as="geometry">
            <mxPoint x="340" y="300" as="sourcePoint" />
            <mxPoint x="500" y="300" as="targetPoint" />
          </mxGeometry>
        </mxCell>
        <mxCell id="qFnuYC6iwy2XqBTxq7xe-23" value="&amp;lt;&amp;lt;include&amp;gt;&amp;gt;" style="edgeStyle=none;html=1;endArrow=open;verticalAlign=bottom;dashed=1;labelBackgroundColor=none;rounded=0;entryX=0.346;entryY=0.037;entryDx=0;entryDy=0;exitX=0.689;exitY=1.02;exitDx=0;exitDy=0;exitPerimeter=0;entryPerimeter=0;" parent="1" source="qFnuYC6iwy2XqBTxq7xe-11" target="qFnuYC6iwy2XqBTxq7xe-14" edge="1">
          <mxGeometry width="160" relative="1" as="geometry">
            <mxPoint x="340" y="300" as="sourcePoint" />
            <mxPoint x="500" y="300" as="targetPoint" />
          </mxGeometry>
        </mxCell>
        <mxCell id="DQr0__gU5UpDShlA6EIy-1" value="View all class types" style="ellipse;whiteSpace=wrap;html=1;" vertex="1" parent="1">
          <mxGeometry x="490" y="90" width="140" height="70" as="geometry" />
        </mxCell>
        <mxCell id="DQr0__gU5UpDShlA6EIy-2" value="Add class type" style="ellipse;whiteSpace=wrap;html=1;" vertex="1" parent="1">
          <mxGeometry x="230" y="40" width="140" height="70" as="geometry" />
        </mxCell>
        <mxCell id="DQr0__gU5UpDShlA6EIy-3" value="Edit class type" style="ellipse;whiteSpace=wrap;html=1;" vertex="1" parent="1">
          <mxGeometry x="360" y="-50" width="140" height="70" as="geometry" />
        </mxCell>
        <mxCell id="DQr0__gU5UpDShlA6EIy-4" value="Delete class type" style="ellipse;whiteSpace=wrap;html=1;" vertex="1" parent="1">
          <mxGeometry x="540" y="-60" width="140" height="70" as="geometry" />
        </mxCell>
        <mxCell id="DQr0__gU5UpDShlA6EIy-7" value="&amp;lt;&amp;lt;include&amp;gt;&amp;gt;" style="edgeStyle=none;html=1;endArrow=open;verticalAlign=bottom;dashed=1;labelBackgroundColor=none;rounded=0;entryX=1;entryY=0.5;entryDx=0;entryDy=0;exitX=0.046;exitY=0.323;exitDx=0;exitDy=0;exitPerimeter=0;" edge="1" parent="1" source="DQr0__gU5UpDShlA6EIy-1" target="DQr0__gU5UpDShlA6EIy-2">
          <mxGeometry width="160" relative="1" as="geometry">
            <mxPoint x="340" y="120" as="sourcePoint" />
            <mxPoint x="500" y="120" as="targetPoint" />
          </mxGeometry>
        </mxCell>
        <mxCell id="DQr0__gU5UpDShlA6EIy-8" value="&amp;lt;&amp;lt;include&amp;gt;&amp;gt;" style="edgeStyle=none;html=1;endArrow=open;verticalAlign=bottom;dashed=1;labelBackgroundColor=none;rounded=0;exitX=0.257;exitY=0.071;exitDx=0;exitDy=0;exitPerimeter=0;" edge="1" parent="1" source="DQr0__gU5UpDShlA6EIy-1">
          <mxGeometry width="160" relative="1" as="geometry">
            <mxPoint x="340" y="120" as="sourcePoint" />
            <mxPoint x="480" y="10" as="targetPoint" />
          </mxGeometry>
        </mxCell>
        <mxCell id="DQr0__gU5UpDShlA6EIy-9" value="&amp;lt;&amp;lt;include&amp;gt;&amp;gt;" style="edgeStyle=none;html=1;endArrow=open;verticalAlign=bottom;dashed=1;labelBackgroundColor=none;rounded=0;entryX=0.449;entryY=1.014;entryDx=0;entryDy=0;exitX=0.674;exitY=0.037;exitDx=0;exitDy=0;exitPerimeter=0;entryPerimeter=0;" edge="1" parent="1" source="DQr0__gU5UpDShlA6EIy-1" target="DQr0__gU5UpDShlA6EIy-4">
          <mxGeometry width="160" relative="1" as="geometry">
            <mxPoint x="340" y="120" as="sourcePoint" />
            <mxPoint x="500" y="120" as="targetPoint" />
          </mxGeometry>
        </mxCell>
        <mxCell id="DQr0__gU5UpDShlA6EIy-10" value="" style="edgeStyle=none;html=1;endArrow=none;verticalAlign=bottom;rounded=0;entryX=1;entryY=0.5;entryDx=0;entryDy=0;" edge="1" parent="1" source="qFnuYC6iwy2XqBTxq7xe-6" target="DQr0__gU5UpDShlA6EIy-1">
          <mxGeometry width="160" relative="1" as="geometry">
            <mxPoint x="750" y="90" as="sourcePoint" />
            <mxPoint x="500" y="120" as="targetPoint" />
          </mxGeometry>
        </mxCell>
      </root>
    </mxGraphModel>
  </diagram>
</mxfile>
